<!DOCTYPE svg PUBLIC "-//W3C//DTD SVG 1.1//EN" "http://www.w3.org/Graphics/SVG/1.1/DTD/svg11.dtd">
<!-- Uploaded to: SVG Repo, www.svgrepo.com, Transformed by: SVG Repo Mixer Tools -->
<svg version="1.1" id="designs" xmlns="http://www.w3.org/2000/svg" xmlns:xlink="http://www.w3.org/1999/xlink" width="800px" height="800px" viewBox="0 0 32 32" xml:space="preserve" fill="#000000">
<g id="SVGRepo_bgCarrier" stroke-width="0"/>
<g id="SVGRepo_tracerCarrier" stroke-linecap="round" stroke-linejoin="round"/>
<g id="SVGRepo_iconCarrier"> <style type="text/css"> .sketchy_een{fill:#ffffff;} </style> <path class="sketchy_een" d="M20.804,23.238c0,0.417-0.367,0.835-0.806,0.806c-0.369-0.023-0.738-0.029-1.107-0.051 c-0.344-0.018-0.688-0.037-1.034-0.047c-1.632-0.045-3.268-0.01-4.902-0.01c-0.847,0-1.696,0.002-2.545,0.014 c-0.915,0.014-1.82,0.095-2.73,0.208c-0.208,0.025-0.455-0.107-0.596-0.247c-0.155-0.157-0.245-0.373-0.245-0.596 c0-0.222,0.089-0.437,0.245-0.594c0.173-0.171,0.363-0.219,0.596-0.247c0.788-0.092,1.571-0.142,2.364-0.142c0.043,0,0.087,0,0.13,0 c1.684,0.012,3.369,0.023,5.053,0.031c0.332,0.002,0.666,0,1.001-0.002c0.455-0.002,0.909-0.006,1.366,0 c0.802,0.012,1.601,0.074,2.403,0.068C20.437,22.428,20.804,22.799,20.804,23.238z M20.279,18.755 c-0.385,0.004-0.769,0.029-1.154,0.029c-0.42,0.002-0.841,0-1.263,0c-0.818,0.004-1.636,0.006-2.456-0.008 c-1.756-0.031-3.514-0.068-5.271-0.138c-1.041-0.041-2.083-0.111-3.124-0.155c-0.011-0.001-0.023-0.001-0.034-0.001 c-0.449,0-0.819,0.414-0.819,0.852c0,0.476,0.389,0.835,0.853,0.851c0.964,0.033,1.927,0.051,2.891,0.076 c0.867,0.021,1.731,0.06,2.596,0.083c1.714,0.047,3.423,0.13,5.135,0.157c0.441,0.008,0.882,0.006,1.323,0.006 c0.153,0,0.307,0.002,0.46,0.002c0.288,0.002,0.575,0.004,0.863-0.006c0.476-0.015,0.874-0.386,0.874-0.874 C21.153,19.155,20.755,18.749,20.279,18.755z M6.3,15.714c-0.008-0.519,0.021-1.037,0.031-1.556 c0.008-0.532,0.031-1.062,0.054-1.595c0.05-1.105,0.043-2.209,0.058-3.314c0.004-0.356,0.223-0.668,0.534-0.802 c0.153-0.204,0.384-0.347,0.654-0.345c0.643,0.004,1.284,0.012,1.927,0.021c1.71,0.021,3.417,0.006,5.127-0.006 c0.841-0.008,1.68-0.018,2.522-0.027c0.249-0.004,0.497-0.009,0.746-0.009c0.148,0,0.296,0.002,0.445,0.007 c0.188,0.006,0.379,0.021,0.567,0.037c0.237,0.021,0.478,0.043,0.705,0.111c0.364,0.111,0.599,0.446,0.595,0.815 c0.121,0.152,0.203,0.338,0.216,0.547c0.056,0.958,0.066,1.916,0.068,2.873c0,0.927,0.019,1.854,0.01,2.78 c-0.006,0.465-0.383,0.854-0.853,0.859c-0.141,0.258-0.406,0.442-0.717,0.442c-0.458,0-0.915-0.008-1.374-0.008 c-1.667-0.004-3.336-0.002-5.003-0.002c-1.794,0-3.59,0.021-5.383-0.01c-0.032,0.004-0.06,0.019-0.093,0.019 C6.677,16.554,6.308,16.171,6.3,15.714z M8.167,9.758c-0.049,1.694-0.121,3.386-0.163,5.079c0.284,0.008,0.567,0.016,0.851,0.023 c1.721,0.041,3.441,0.041,5.162,0.041c0.859,0,1.715-0.004,2.574-0.004c0.749,0,1.499-0.011,2.249,0.004 c0.007-0.81,0.015-1.619,0.012-2.428c-0.005-0.896-0.053-1.788-0.113-2.681c-0.264-0.015-0.527-0.028-0.792-0.029 c-1.638-0.014-3.274-0.035-4.909-0.033c-0.324,0.002-0.647,0-0.971,0c-0.538-0.002-1.076-0.004-1.612,0.002 C9.693,9.74,8.93,9.75,8.167,9.758z M29.967,17.11c-0.004,0.865,0.018,1.731,0.014,2.597c-0.002,0.427-0.014,0.857-0.041,1.282 c-0.029,0.431-0.083,0.859-0.122,1.288c-0.039,0.424-0.056,0.849-0.091,1.272c-0.039,0.48-0.113,0.962-0.216,1.434 c-0.084,0.385-0.167,0.779-0.305,1.148c-0.095,0.249-0.192,0.501-0.317,0.736c-0.085,0.157-0.187,0.307-0.284,0.458 c-0.196,0.301-0.538,0.458-0.876,0.404c-0.141,0.187-0.358,0.312-0.611,0.329c-0.392,0.027-0.785,0.039-1.179,0.06 c-0.404,0.02-0.81,0.043-1.214,0.045c-0.804,0.006-1.607,0.004-2.411,0.017c-0.795,0.014-1.589,0.041-2.384,0.047 c-1.644,0.012-3.289,0.039-4.933,0.021c-1.661-0.018-3.322-0.056-4.981-0.07c-1.608-0.011-3.239-0.108-4.838,0.096 c-0.125,0.017-0.25,0.034-0.375,0.051c-0.018,0.003-0.035,0.006-0.053,0.009c-0.148,0.039-0.295,0.039-0.443,0 c-0.043-0.013-0.074-0.048-0.114-0.066c-0.189,0.026-0.385,0.004-0.551-0.094c-0.206-0.122-0.313-0.297-0.394-0.515 c-0.128-0.334-0.221-0.684-0.323-1.028c-0.103-0.354-0.198-0.711-0.264-1.072c-0.084-0.464-0.154-0.932-0.216-1.4 c-0.016-0.064-0.025-0.13-0.026-0.196c-0.045-0.346-0.086-0.693-0.127-1.039c-0.097-0.835-0.14-1.669-0.171-2.508 c-0.06-1.669-0.091-3.342-0.089-5.012c0.002-1.719-0.043-3.439-0.027-5.158c0.008-0.886,0.033-1.77,0.054-2.656 C2.083,6.668,2.095,5.746,2.12,4.823c0.001-0.031,0.016-0.059,0.019-0.089C2.119,4.66,2.093,4.589,2.093,4.509 c0-0.456,0.384-0.873,0.847-0.873c0.008,0,0.017,0,0.025,0c0.486,0.016,0.973,0.033,1.459,0.051C4.815,3.7,5.207,3.698,5.598,3.718 c0.818,0.039,1.63,0.134,2.448,0.151c0.828,0.018,1.655,0.027,2.481,0.027c1.675,0,3.347-0.027,5.022-0.049 c1.684-0.023,3.369-0.095,5.053-0.117c0.808-0.01,1.616-0.027,2.425-0.031c0.76-0.004,1.523-0.031,2.283-0.008 c0.435,0.014,0.8,0.354,0.8,0.801c0,0.188-0.081,0.367-0.201,0.511c0.005,0.034,0.021,0.064,0.023,0.098 C25.991,5.978,26,6.852,26,7.727c1.029,0.006,2.059,0.026,3.089,0.033c0.366,0.002,0.666,0.259,0.759,0.599 c0.092,0.136,0.158,0.29,0.152,0.463c-0.021,0.709-0.084,1.418-0.101,2.127c-0.016,0.686-0.031,1.372-0.006,2.057 c0.025,0.68,0.066,1.358,0.08,2.038C29.986,15.732,29.971,16.42,29.967,17.11z M24.779,26.633c0.156-0.007,0.312-0.017,0.467-0.028 c-0.289-0.34-0.55-0.696-0.73-1.106c-0.097-0.219-0.194-0.447-0.245-0.686c-0.052-0.243-0.083-0.491-0.105-0.742 c-0.003-0.036,0-0.071-0.001-0.107c-0.027-0.128-0.036-0.26-0.008-0.395c0.008-0.299-0.03-0.603-0.047-0.898 c-0.018-0.28-0.025-0.56-0.023-0.839c0.002-0.618,0.019-1.236,0.031-1.855c0.025-1.23,0.041-2.459,0.045-3.689 c0.002-0.925,0-1.849,0.018-2.772c0.016-0.894,0.08-1.785,0.095-2.677c0.017-0.952,0.016-1.904,0-2.856 c-0.015-0.903-0.077-1.803-0.145-2.704c-0.357-0.003-0.714-0.02-1.07-0.014c-0.797,0.013-1.593,0.029-2.39,0.029 c-0.853,0-1.706,0.039-2.559,0.078c-0.831,0.039-1.663,0.047-2.498,0.056c-0.841,0.01-1.68,0.033-2.522,0.054 c-0.847,0.023-1.694,0.012-2.541,0.012c-0.828,0-1.655,0.006-2.485,0.01c-0.404,0-0.812,0.002-1.216-0.029 c-0.41-0.033-0.816-0.083-1.228-0.095c-0.398-0.011-0.799,0.006-1.197,0.01C4.227,5.391,4.029,5.386,3.831,5.385 c-0.077,1.61-0.2,3.218-0.225,4.831c-0.025,1.659,0.051,3.318,0.066,4.977c0.016,1.69,0.018,3.382,0.084,5.071 c0.033,0.828,0.068,1.655,0.161,2.479c0.023,0.2,0.05,0.398,0.076,0.598c0.016,0.103,0.027,0.208,0.041,0.313 c0.01,0.076,0.023,0.15,0.03,0.224c0.084,0.606,0.173,1.218,0.335,1.81c0.092,0.336,0.215,0.664,0.331,0.993 c0.966-0.11,1.934-0.095,2.906-0.095c1.655,0,3.31,0.058,4.966,0.089c1.657,0.031,3.318,0.035,4.977,0.031c0.344,0,0.69,0,1.035,0 c0.46,0,0.923,0.002,1.385-0.004c0.812-0.008,1.624-0.045,2.436-0.054c0.293-0.002,0.589,0,0.882,0 C23.806,26.652,24.291,26.656,24.779,26.633z M28.253,14.205c-0.01-0.451-0.039-0.9-0.037-1.35c0.002-0.417,0.006-0.837,0.01-1.255 c0.003-0.746,0.019-1.49,0.031-2.235c-0.229,0-0.458,0.001-0.688,0.005c-0.524,0.01-1.049,0.019-1.575,0.023 c-0.003,0.612-0.007,1.225-0.026,1.837c-0.019,0.622-0.051,1.241-0.062,1.861c-0.016,0.927-0.006,1.854-0.004,2.78 c0.002,0.896,0.002,1.791,0.018,2.685c0.014,0.876,0.006,1.748-0.006,2.625c-0.004,0.412-0.016,0.826-0.012,1.239 c0.004,0.228,0.008,0.453,0.021,0.68c0.008,0.103,0.016,0.204,0.025,0.307c0.018,0.21,0.006,0.4-0.035,0.612 c-0.014,0.071-0.056,0.126-0.089,0.188c0.032,0.144,0.063,0.287,0.115,0.427c0.092,0.19,0.199,0.366,0.323,0.537 c0.164,0.203,0.336,0.399,0.533,0.57c0.177,0.12,0.36,0.221,0.558,0.307c0.002,0.001,0.004,0.003,0.006,0.004 c0.033-0.064,0.074-0.124,0.104-0.19c0.209-0.556,0.325-1.146,0.416-1.731c0.044-0.361,0.072-0.722,0.095-1.086 c0.025-0.4,0.072-0.794,0.115-1.193c0.089-0.828,0.126-1.653,0.12-2.487C28.195,17.646,28.29,15.925,28.253,14.205z"/> </g>
</svg>