<!DOCTYPE svg PUBLIC "-//W3C//DTD SVG 1.1//EN" "http://www.w3.org/Graphics/SVG/1.1/DTD/svg11.dtd">
<!-- Uploaded to: SVG Repo, www.svgrepo.com, Transformed by: SVG Repo Mixer Tools -->
<svg width="256px" height="256px" viewBox="0 0 64 64" id="icons" xmlns="http://www.w3.org/2000/svg" fill="#000000" stroke="#000000" stroke-width="0.00064">
<g id="SVGRepo_bgCarrier" stroke-width="0"/>
<g id="SVGRepo_tracerCarrier" stroke-linecap="round" stroke-linejoin="round"/>
<g id="SVGRepo_iconCarrier">
<defs>
<style>.cls-1{fill:#616161;}</style>
</defs>
<title/>
<path class="cls-1" d="M57.56,11.35l-25-7.26a2,2,0,0,0-1.14,0h0l-25,7.27A2,2,0,0,0,5,13.27V35.1c0,19,25.43,25.57,26.52,25.84A2,2,0,0,0,32,61a1.77,1.77,0,0,0,.52-.07C34.08,60.54,59,53.92,59,35.1V13.27A2,2,0,0,0,57.56,11.35ZM55,35.1C55,49.7,35.36,56,32,56.93,28.64,56,9,49.73,9,35.1V14.78l23-6.7,23,6.7Z"/>
<path class="cls-1" d="M30,20v2.09A6,6,0,0,0,31,34h3a2,2,0,0,1,0,4H28a2,2,0,0,0,0,4h2v2a2,2,0,0,0,4,0V42a6,6,0,0,0,0-12H31a2,2,0,0,1,0-4h6a2,2,0,0,0,0-4H34V20a2,2,0,0,0-4,0Z"/>
</g>
</svg>